<svg width="74" height="74" viewBox="0 0 74 74" fill="none" xmlns="http://www.w3.org/2000/svg">
<path d="M74 37C74 57.4345 57.4345 74 37 74C16.5655 74 0 57.4345 0 37C0 16.5655 16.5655 0 37 0C57.4345 0 74 16.5655 74 37Z" fill="#E9FF61"/>
<path fill-rule="evenodd" clip-rule="evenodd" d="M37.4332 59.6471C49.9488 59.6471 60.0948 49.5012 60.0948 36.9855C60.0948 24.4699 49.9488 14.3239 37.4332 14.3239C24.9175 14.3239 14.7716 24.4699 14.7716 36.9855C14.7716 49.5012 24.9175 59.6471 37.4332 59.6471ZM37.4332 62.4187C51.4795 62.4187 62.8664 51.0319 62.8664 36.9855C62.8664 22.9392 51.4795 11.5524 37.4332 11.5524C23.3868 11.5524 12 22.9392 12 36.9855C12 51.0319 23.3868 62.4187 37.4332 62.4187Z" fill="black"/>
<path d="M32.1152 64.348L36.2657 41.0079H25.8567L42.7512 9.62279L38.6006 31.6594H49.0097L32.1152 64.348Z" fill="black"/>
<path fill-rule="evenodd" clip-rule="evenodd" d="M35.1566 65.9199L28.7443 63.7485L32.1795 44.4316H20.1255L39.7365 8L46.1157 10.2565L42.7294 28.2357H54.6331L35.1566 65.9199ZM38.6006 31.6594L42.7512 9.62279L25.8567 41.0079H36.2657L32.1152 64.348L49.0097 31.6594H38.6006Z" fill="#E9FF61"/>
</svg>
