<svg width="38" height="61" viewBox="0 0 38 61" fill="none" xmlns="http://www.w3.org/2000/svg">
<path d="M35.0488 5.16529H27.1332V1.89999C27.1332 0.850655 26.2826 0 25.2332 0H12.4358C11.3865 0 10.5359 0.850655 10.5359 1.89999V5.16529H2.62029C1.24515 5.16529 0 6.2873 0 7.77873V58.1797C0 59.5548 1.12201 60.8 2.62029 60.8H35.0488C36.4239 60.8 37.6691 59.678 37.6691 58.1797V7.65559C37.6691 6.2873 36.4239 5.16529 35.0488 5.16529ZM28.1937 32.8595L13.8471 48.328L17.9645 36.3269L9.3523 32.8595L23.5757 17.391L18.7676 28.898L28.1937 32.8595Z" fill="white"/>
</svg>
